<svg version="1.1" viewBox="0.0 0.0 386.4514435695538 387.34645669291336" fill="none" stroke="none" stroke-linecap="square" stroke-miterlimit="10" xmlns:xlink="http://www.w3.org/1999/xlink" xmlns="http://www.w3.org/2000/svg"><clipPath id="p.0"><path d="m0 0l386.45145 0l0 387.34647l-386.45145 0l0 -387.34647z" clip-rule="nonzero"/></clipPath><g clip-path="url(#p.0)"><path fill="#000000" fill-opacity="0.0" d="m0 0l386.45145 0l0 387.34647l-386.45145 0z" fill-rule="evenodd"/><path fill="#1d2d44" d="m10.758531 13.448819l361.3543 0l0 361.35434l-361.3543 0z" fill-rule="evenodd"/><path fill="#000000" fill-opacity="0.0" d="m24.88389 30.86514l333.1024 0l0 326.51968l-333.1024 0z" fill-rule="evenodd"/><path stroke="#fdfffc" stroke-width="4.0" stroke-linejoin="round" stroke-linecap="butt" d="m24.88389 30.86514l333.1024 0l0 326.51968l-333.1024 0z" fill-rule="evenodd"/><path fill="#4cb944" d="m107.150696 107.66404c-13.996544 0 -26.31958 3.3343124 -36.969124 10.002945c-10.64954 6.643265 -18.814194 16.075691 -24.493946 28.29728c-5.6544037 12.196243 -8.481598 26.433624 -8.481598 42.712173l0 8.215347c0 25.939178 6.2756233 46.021133 18.826866 60.24585c12.55125 14.224701 29.74265 21.337067 51.574207 21.337067c13.235863 0 25.001068 -2.4341736 35.295624 -7.3025208c10.319916 -4.868347 18.332428 -11.727173 24.037537 -20.5764c5.7051086 -8.874603 8.823914 -19.093063 9.356384 -30.655396l-39.82167 0c-0.3042755 9.432434 -2.8905945 16.31659 -7.758957 20.652466c-4.8683624 4.335861 -11.904671 6.5037994 -21.108917 6.5037994c-10.877747 0 -18.54795 -3.8033905 -23.010612 -11.410187c-4.437317 -7.6067963 -6.6559677 -20.272125 -6.6559677 -37.995956l0 -11.752502c0.22821045 -16.35463 2.6623917 -28.259262 7.3025436 -35.71393c4.6401596 -7.454666 11.942703 -11.181992 21.90763 -11.181992c9.81279 0 17.115334 2.2059784 21.907623 6.61792c4.7922974 4.4119415 7.340576 11.676437 7.6448517 21.793472l39.93579 0c-1.6735077 -18.636658 -8.633743 -33.25438 -20.880722 -43.853195c-12.2469635 -10.624161 -28.449486 -15.936241 -48.607544 -15.936241z" fill-rule="evenodd"/><path fill="#4cb944" d="m195.23763 110.06018l0 166.13248l40.04988 0l0 -69.37399l58.990845 0l0 69.37399l39.821686 0l0 -166.13248l-39.821686 0l0 65.95094l-58.990845 0l0 -65.95094z" fill-rule="evenodd"/><path stroke="#fdfffc" stroke-width="1.0" stroke-linejoin="round" stroke-linecap="butt" d="m107.150696 107.66404c-13.996544 0 -26.31958 3.3343124 -36.969124 10.002945c-10.64954 6.643265 -18.814194 16.075691 -24.493946 28.29728c-5.6544037 12.196243 -8.481598 26.433624 -8.481598 42.712173l0 8.215347c0 25.939178 6.2756233 46.021133 18.826866 60.24585c12.55125 14.224701 29.74265 21.337067 51.574207 21.337067c13.235863 0 25.001068 -2.4341736 35.295624 -7.3025208c10.319916 -4.868347 18.332428 -11.727173 24.037537 -20.5764c5.7051086 -8.874603 8.823914 -19.093063 9.356384 -30.655396l-39.82167 0c-0.3042755 9.432434 -2.8905945 16.31659 -7.758957 20.652466c-4.8683624 4.335861 -11.904671 6.5037994 -21.108917 6.5037994c-10.877747 0 -18.54795 -3.8033905 -23.010612 -11.410187c-4.437317 -7.6067963 -6.6559677 -20.272125 -6.6559677 -37.995956l0 -11.752502c0.22821045 -16.35463 2.6623917 -28.259262 7.3025436 -35.71393c4.6401596 -7.454666 11.942703 -11.181992 21.90763 -11.181992c9.81279 0 17.115334 2.2059784 21.907623 6.61792c4.7922974 4.4119415 7.340576 11.676437 7.6448517 21.793472l39.93579 0c-1.6735077 -18.636658 -8.633743 -33.25438 -20.880722 -43.853195c-12.2469635 -10.624161 -28.449486 -15.936241 -48.607544 -15.936241z" fill-rule="evenodd"/><path stroke="#fdfffc" stroke-width="1.0" stroke-linejoin="round" stroke-linecap="butt" d="m195.23763 110.06018l0 166.13248l40.04988 0l0 -69.37399l58.990845 0l0 69.37399l39.821686 0l0 -166.13248l-39.821686 0l0 65.95094l-58.990845 0l0 -65.95094z" fill-rule="evenodd"/></g></svg>